<svg width="32" height="32" xmlns="http://www.w3.org/2000/svg">
<circle fill="none" stroke="gray" stroke-width="1" cx="16" cy="16" r="11"/>
<path fill="gray" stroke="gray" stroke-linejoin="round" d="M22 20 30 18V14.5L22 12"/>
<path transform="rotate(45 16 16)" fill="gray" stroke="gray" stroke-linejoin="round" d="M22 20 30 18V14.5L22 12"/>
<path transform="rotate(90 16 16)" fill="gray" stroke="gray" stroke-linejoin="round" d="M22 20 30 18V14.5L22 12"/>
<path transform="rotate(135 16 16)" fill="gray" stroke="gray" stroke-linejoin="round" d="M22 20 30 18V14.5L22 12"/>
<path transform="rotate(180 16 16)" fill="gray" stroke="gray" stroke-linejoin="round" d="M22 20 30 18V14.5L22 12"/>
<path transform="rotate(225 16 16)" fill="gray" stroke="gray" stroke-linejoin="round" d="M22 20 30 18V14.5L22 12"/>
<path transform="rotate(270 16 16)" fill="gray" stroke="gray" stroke-linejoin="round" d="M22 20 30 18V14.5L22 12"/>
<path transform="rotate(315 16 16)" fill="gray" stroke="gray" stroke-linejoin="round" d="M22 20 30 18V14.5L22 12"/>
<circle fill="none" stroke="gray" stroke-width="5" cx="16" cy="16" r="8"/>
<circle fill="none" stroke="gray" cx="16" cy="16" r="6"/>
</svg>
